<svg width="33" height="52" viewBox="0 0 33 52" fill="none" xmlns="http://www.w3.org/2000/svg">
<path d="M0 30.5882V52H12.375V41.8039C10.725 36.0941 7.5625 31.9477 6.1875 30.5882H0Z" fill="url(#paint0_linear_18_56)"/>
<path d="M0 0V23.451H6.1875V14.2745L20.625 52H33V41.8039H26.8125L9.28125 0H0Z" fill="url(#paint1_linear_18_56)"/>
<path d="M20.625 0V23.451C20.625 25.0824 24.75 31.6078 26.8125 34.6667V36.7059H33V0H26.8125V9.17647C26.8125 6.72941 24.0625 2.03922 22.6875 0H20.625Z" fill="url(#paint2_linear_18_56)"/>
<defs>
<linearGradient id="paint0_linear_18_56" x1="1.03125" y1="1.04901e-06" x2="31.455" y2="51.2852" gradientUnits="userSpaceOnUse">
<stop stop-color="#010101"/>
<stop offset="0.519634" stop-color="#232222"/>
<stop offset="1"/>
</linearGradient>
<linearGradient id="paint1_linear_18_56" x1="1.03125" y1="1.04901e-06" x2="31.455" y2="51.2852" gradientUnits="userSpaceOnUse">
<stop stop-color="#010101"/>
<stop offset="0.519634" stop-color="#232222"/>
<stop offset="1"/>
</linearGradient>
<linearGradient id="paint2_linear_18_56" x1="1.03125" y1="1.04901e-06" x2="31.455" y2="51.2852" gradientUnits="userSpaceOnUse">
<stop stop-color="#010101"/>
<stop offset="0.519634" stop-color="#232222"/>
<stop offset="1"/>
</linearGradient>
</defs>
</svg>
